<svg width="1000" height="250" viewBox="0 0 1000 250" fill="none" xmlns="http://www.w3.org/2000/svg">
<path d="M868.088 102.825C858.123 102.825 853.14 110.299 853.14 125.247C853.14 132.821 854.485 138.452 857.176 142.139C859.867 145.826 863.504 147.67 868.088 147.67C872.075 147.67 875.563 146.325 878.552 143.634C881.542 140.943 883.037 137.904 883.037 134.515V115.979C883.037 112.591 881.542 109.552 878.552 106.861C875.563 104.17 872.075 102.825 868.088 102.825ZM859.867 165.608C850.997 165.608 843.723 162.07 838.042 154.995C832.362 147.82 829.521 137.904 829.521 125.247C829.521 112.292 832.262 102.326 837.743 95.3505C843.224 88.3746 850.599 84.8866 859.867 84.8866C868.039 84.8866 875.463 87.9261 882.14 94.0052C882.24 94.1048 882.339 94.1546 882.439 94.1546C882.539 94.1546 882.588 94.1048 882.588 94.0052V60.5206C882.588 58.2285 883.386 56.2354 884.98 54.5412C886.674 52.8471 888.668 52 890.96 52H898.284C900.576 52 902.52 52.8471 904.114 54.5412C905.808 56.2354 906.656 58.2285 906.656 60.5206V155.593C906.656 157.885 905.808 159.878 904.114 161.572C902.52 163.266 900.576 164.113 898.284 164.113H892.604C890.212 164.113 888.169 163.316 886.475 161.722C884.881 160.027 884.034 157.985 883.934 155.593V154.397C883.934 154.297 883.884 154.247 883.784 154.247L883.485 154.546C877.207 161.921 869.334 165.608 859.867 165.608Z" fill="#283618"/>
<path d="M757.376 164.113C755.083 164.113 753.09 163.266 751.396 161.572C749.802 159.878 749.004 157.885 749.004 155.593V63.5104C749.004 61.2183 749.802 59.2251 751.396 57.531C753.09 55.8368 755.083 54.9897 757.376 54.9897H810.293C812.585 54.9897 814.528 55.8368 816.123 57.531C817.817 59.2251 818.664 61.2183 818.664 63.5104V66.9485C818.664 69.2406 817.817 71.2337 816.123 72.9279C814.528 74.622 812.585 75.4691 810.293 75.4691H775.613C774.815 75.4691 774.417 75.8677 774.417 76.665V96.397C774.417 97.2939 774.815 97.7423 775.613 97.7423H807.303C809.595 97.7423 811.539 98.5894 813.133 100.284C814.827 101.978 815.674 103.971 815.674 106.263V108.505C815.674 110.797 814.827 112.79 813.133 114.485C811.539 116.179 809.595 117.026 807.303 117.026H775.613C774.815 117.026 774.417 117.424 774.417 118.222V142.438C774.417 143.235 774.815 143.634 775.613 143.634H810.293C812.585 143.634 814.528 144.481 816.123 146.175C817.817 147.869 818.664 149.863 818.664 152.155V155.593C818.664 157.885 817.817 159.878 816.123 161.572C814.528 163.266 812.585 164.113 810.293 164.113H757.376Z" fill="#283618"/>
<path d="M674.993 106.263C672.701 106.263 670.708 105.466 669.014 103.871C667.32 102.177 666.473 100.184 666.473 97.8919C666.473 95.5998 667.32 93.6067 669.014 91.9125C670.708 90.2184 672.701 89.3713 674.993 89.3713H680.973C681.77 89.3713 682.169 88.9229 682.169 88.0259V69.4899C682.169 67.1978 683.016 65.2046 684.71 63.5105C686.404 61.8163 688.397 60.9692 690.689 60.9692H697.864C700.157 60.9692 702.15 61.8163 703.844 63.5105C705.538 65.2046 706.385 67.1978 706.385 69.4899V88.0259C706.385 88.9229 706.833 89.3713 707.73 89.3713H722.38C724.672 89.3713 726.615 90.2184 728.21 91.9125C729.904 93.6067 730.751 95.5998 730.751 97.8919C730.751 100.184 729.904 102.177 728.21 103.871C726.615 105.466 724.672 106.263 722.38 106.263H707.73C706.833 106.263 706.385 106.712 706.385 107.608V133.17C706.385 139.449 706.933 143.435 708.029 145.129C709.225 146.823 711.816 147.67 715.803 147.67C717.895 147.67 719.54 147.571 720.736 147.371C722.928 147.072 724.871 147.571 726.565 148.866C728.26 150.162 729.107 151.856 729.107 153.949V155.145C729.107 157.636 728.309 159.828 726.715 161.722C725.12 163.615 723.077 164.712 720.586 165.01C717.497 165.409 713.909 165.608 709.823 165.608C699.658 165.608 692.483 163.466 688.297 159.181C684.211 154.796 682.169 146.973 682.169 135.712V107.608C682.169 106.712 681.77 106.263 680.973 106.263H674.993Z" fill="#283618"/>
<path d="M606.324 165.608C597.554 165.608 591.176 163.167 587.19 158.283C583.303 153.4 581.36 145.029 581.36 133.17V94.902C581.36 92.6099 582.207 90.6167 583.901 88.9226C585.595 87.2284 587.588 86.3813 589.88 86.3813H596.458C598.75 86.3813 600.743 87.2284 602.437 88.9226C604.131 90.6167 604.978 92.6099 604.978 94.902V131.526C604.978 137.306 605.726 141.292 607.221 143.484C608.815 145.577 611.506 146.624 615.293 146.624C618.781 146.624 621.97 145.228 624.86 142.438C627.75 139.548 629.195 136.459 629.195 133.17V94.902C629.195 92.6099 630.042 90.6167 631.736 88.9226C633.43 87.2284 635.423 86.3813 637.716 86.3813H644.891C647.183 86.3813 649.176 87.2284 650.87 88.9226C652.564 90.6167 653.411 92.6099 653.411 94.902V155.593C653.411 157.885 652.564 159.878 650.87 161.572C649.176 163.266 647.183 164.113 644.891 164.113H638.762C636.37 164.113 634.327 163.316 632.633 161.722C631.039 160.027 630.191 157.984 630.092 155.593V154.397C630.092 154.297 630.042 154.247 629.942 154.247L629.643 154.546C623.166 161.921 615.393 165.608 606.324 165.608Z" fill="#283618"/>
<path d="M542.503 107.309C540.111 103.622 536.424 101.778 531.441 101.778C526.458 101.778 522.721 103.622 520.23 107.309C517.838 110.997 516.642 116.976 516.642 125.248C516.642 133.519 517.838 139.498 520.23 143.186C522.721 146.873 526.458 148.717 531.441 148.717C536.424 148.717 540.111 146.873 542.503 143.186C544.995 139.498 546.24 133.519 546.24 125.248C546.24 116.976 544.995 110.997 542.503 107.309ZM560.292 154.995C553.416 162.071 543.799 165.608 531.441 165.608C519.084 165.608 509.467 162.071 502.591 154.995C495.715 147.919 492.276 138.004 492.276 125.248C492.276 112.492 495.715 102.576 502.591 95.5001C509.467 88.4245 519.084 84.8867 531.441 84.8867C543.799 84.8867 553.416 88.4245 560.292 95.5001C567.168 102.576 570.606 112.492 570.606 125.248C570.606 138.004 567.168 147.919 560.292 154.995Z" fill="#283618"/>
<path d="M436.316 164.113C434.024 164.113 432.031 163.266 430.337 161.572C428.743 159.878 427.945 157.885 427.945 155.593V94.902C427.945 92.6099 428.743 90.6167 430.337 88.9226C432.031 87.2284 434.024 86.3813 436.316 86.3813H443.641C445.933 86.3813 447.877 87.2284 449.471 88.9226C451.165 90.6167 452.012 92.6099 452.012 94.902V101.18C452.012 101.28 452.062 101.33 452.162 101.33C452.361 101.33 452.461 101.28 452.461 101.18C458.639 92.9088 467.26 88.0755 478.322 86.6803C480.614 86.3814 482.557 87.0789 484.151 88.7731C485.846 90.4673 486.693 92.5102 486.693 94.902V96.0978C486.693 98.3899 485.846 100.383 484.151 102.077C482.557 103.771 480.564 104.718 478.172 104.917C470.1 105.814 463.822 108.605 459.337 113.289C454.952 117.873 452.76 123.852 452.76 131.227V155.593C452.76 157.885 451.913 159.878 450.219 161.572C448.624 163.266 446.681 164.113 444.389 164.113H436.316Z" fill="#283618"/>
<path d="M362.002 115.98V134.516C362.002 137.804 363.497 140.844 366.486 143.634C369.576 146.325 373.064 147.67 376.95 147.67C381.535 147.67 385.172 145.827 387.863 142.139C390.553 138.352 391.899 132.722 391.899 125.248C391.899 110.299 386.916 102.825 376.95 102.825C373.064 102.825 369.576 104.22 366.486 107.01C363.497 109.701 362.002 112.691 362.002 115.98ZM346.904 197C344.612 197 342.619 196.153 340.925 194.459C339.23 192.765 338.383 190.772 338.383 188.48V94.9022C338.383 92.6101 339.23 90.617 340.925 88.9228C342.619 87.2286 344.612 86.3816 346.904 86.3816H352.883C355.275 86.3816 357.318 87.2286 359.012 88.9228C360.706 90.5173 361.603 92.5104 361.703 94.9022V96.0981C361.703 96.1977 361.753 96.2475 361.852 96.2475L362.151 95.9486C368.529 88.574 376.203 84.8867 385.172 84.8867C394.44 84.8867 401.815 88.3747 407.296 95.3506C412.876 102.327 415.667 112.292 415.667 125.248C415.667 137.804 412.777 147.67 406.997 154.845C401.316 162.021 394.041 165.608 385.172 165.608C376.9 165.608 369.526 162.569 363.048 156.49C362.949 156.39 362.849 156.34 362.749 156.34C362.65 156.34 362.6 156.39 362.6 156.49V188.48C362.6 190.772 361.753 192.765 360.059 194.459C358.364 196.153 356.371 197 354.079 197H346.904Z" fill="#283618"/>
<path d="M286.827 120.464C274.271 116.477 265.202 111.544 259.621 105.665C254.04 99.6854 251.25 92.4104 251.25 83.84C251.25 74.4723 254.489 67.0977 260.966 61.7163C267.544 56.2352 276.912 53.4946 289.07 53.4946C298.238 53.4946 306.559 54.541 314.034 56.6338C316.425 57.3314 318.319 58.7764 319.714 60.9688C321.209 63.0616 321.956 65.4036 321.956 67.9946V72.3297C321.956 74.3228 321.109 75.8675 319.415 76.9637C317.721 78.0599 315.927 78.2592 314.034 77.5616C305.563 74.5719 297.74 73.0771 290.564 73.0771C281.396 73.0771 276.812 76.6647 276.812 83.84C276.812 89.919 280.798 94.2541 288.771 96.8451C302.523 101.031 312.04 105.914 317.322 111.495C322.704 117.075 325.394 124.4 325.394 133.469C325.394 154.895 311.891 165.608 284.884 165.608C276.314 165.608 268.54 164.263 261.564 161.572C259.173 160.675 257.279 159.13 255.884 156.938C254.588 154.646 253.941 152.154 253.941 149.464V144.68C253.941 142.886 254.738 141.541 256.332 140.644C257.927 139.648 259.521 139.548 261.116 140.345C268.391 143.933 275.815 145.727 283.389 145.727C288.671 145.727 292.657 144.73 295.348 142.737C298.138 140.644 299.534 137.704 299.534 133.917C299.534 130.629 298.587 127.938 296.693 125.845C294.8 123.752 291.511 121.959 286.827 120.464Z" fill="#283618"/>
<path d="M151.5 52C157.645 52 159.774 70.2386 169.768 80.2321C179.761 90.2257 198 91.6911 198 98.5C198 105.309 179.761 107.771 169.768 117.764C159.774 127.758 158.309 145 151.5 145C144.691 145 141.731 127.758 131.737 117.764C121.744 107.771 105 104.977 105 98.5C105 92.0232 121.744 90.2257 131.737 80.2321C141.731 70.2386 145.355 52 151.5 52Z" fill="#96A956"/>
<path d="M93 169C93 163.477 97.4772 159 103 159H199.25C204.773 159 209.25 163.477 209.25 169V187.4C209.25 192.923 204.773 197.4 199.25 197.4H103C97.4771 197.4 93 192.923 93 187.4V169Z" fill="#BC6C26"/>
</svg>
