<svg width="822" height="250" viewBox="0 0 822 250" fill="none" xmlns="http://www.w3.org/2000/svg">
<path d="M775.088 102.825C765.123 102.825 760.14 110.299 760.14 125.247C760.14 132.821 761.485 138.452 764.176 142.139C766.867 145.826 770.504 147.67 775.088 147.67C779.075 147.67 782.563 146.325 785.552 143.634C788.542 140.943 790.037 137.904 790.037 134.515V115.979C790.037 112.591 788.542 109.552 785.552 106.861C782.563 104.17 779.075 102.825 775.088 102.825ZM766.867 165.608C757.997 165.608 750.723 162.07 745.042 154.995C739.362 147.82 736.521 137.904 736.521 125.247C736.521 112.292 739.262 102.326 744.743 95.3505C750.224 88.3746 757.599 84.8866 766.867 84.8866C775.039 84.8866 782.463 87.9261 789.14 94.0052C789.24 94.1048 789.339 94.1546 789.439 94.1546C789.539 94.1546 789.588 94.1048 789.588 94.0052V60.5206C789.588 58.2285 790.386 56.2354 791.98 54.5412C793.674 52.8471 795.668 52 797.96 52H805.284C807.576 52 809.52 52.8471 811.114 54.5412C812.808 56.2354 813.656 58.2285 813.656 60.5206V155.593C813.656 157.885 812.808 159.878 811.114 161.572C809.52 163.266 807.576 164.113 805.284 164.113H799.604C797.212 164.113 795.169 163.316 793.475 161.722C791.881 160.027 791.034 157.985 790.934 155.593V154.397C790.934 154.297 790.884 154.247 790.784 154.247L790.485 154.546C784.207 161.921 776.334 165.608 766.867 165.608Z" fill="#283618"/>
<path d="M664.376 164.113C662.083 164.113 660.09 163.266 658.396 161.572C656.802 159.878 656.004 157.885 656.004 155.593V63.5104C656.004 61.2183 656.802 59.2251 658.396 57.531C660.09 55.8368 662.083 54.9897 664.376 54.9897H717.293C719.585 54.9897 721.528 55.8368 723.123 57.531C724.817 59.2251 725.664 61.2183 725.664 63.5104V66.9485C725.664 69.2406 724.817 71.2337 723.123 72.9279C721.528 74.622 719.585 75.4691 717.293 75.4691H682.613C681.815 75.4691 681.417 75.8677 681.417 76.665V96.397C681.417 97.2939 681.815 97.7423 682.613 97.7423H714.303C716.595 97.7423 718.539 98.5894 720.133 100.284C721.827 101.978 722.674 103.971 722.674 106.263V108.505C722.674 110.797 721.827 112.79 720.133 114.485C718.539 116.179 716.595 117.026 714.303 117.026H682.613C681.815 117.026 681.417 117.424 681.417 118.222V142.438C681.417 143.235 681.815 143.634 682.613 143.634H717.293C719.585 143.634 721.528 144.481 723.123 146.175C724.817 147.869 725.664 149.863 725.664 152.155V155.593C725.664 157.885 724.817 159.878 723.123 161.572C721.528 163.266 719.585 164.113 717.293 164.113H664.376Z" fill="#283618"/>
<path d="M581.993 106.263C579.701 106.263 577.708 105.466 576.014 103.871C574.32 102.177 573.473 100.184 573.473 97.8919C573.473 95.5998 574.32 93.6067 576.014 91.9125C577.708 90.2184 579.701 89.3713 581.993 89.3713H587.973C588.77 89.3713 589.169 88.9229 589.169 88.0259V69.4899C589.169 67.1978 590.016 65.2046 591.71 63.5105C593.404 61.8163 595.397 60.9692 597.689 60.9692H604.864C607.157 60.9692 609.15 61.8163 610.844 63.5105C612.538 65.2046 613.385 67.1978 613.385 69.4899V88.0259C613.385 88.9229 613.833 89.3713 614.73 89.3713H629.38C631.672 89.3713 633.615 90.2184 635.21 91.9125C636.904 93.6067 637.751 95.5998 637.751 97.8919C637.751 100.184 636.904 102.177 635.21 103.871C633.615 105.466 631.672 106.263 629.38 106.263H614.73C613.833 106.263 613.385 106.712 613.385 107.608V133.17C613.385 139.449 613.933 143.435 615.029 145.129C616.225 146.823 618.816 147.67 622.803 147.67C624.895 147.67 626.54 147.571 627.736 147.371C629.928 147.072 631.871 147.571 633.565 148.866C635.26 150.162 636.107 151.856 636.107 153.949V155.145C636.107 157.636 635.309 159.828 633.715 161.722C632.12 163.615 630.077 164.712 627.586 165.01C624.497 165.409 620.909 165.608 616.823 165.608C606.658 165.608 599.483 163.466 595.297 159.181C591.211 154.796 589.169 146.973 589.169 135.712V107.608C589.169 106.712 588.77 106.263 587.973 106.263H581.993Z" fill="#283618"/>
<path d="M513.324 165.608C504.554 165.608 498.176 163.167 494.19 158.283C490.303 153.4 488.36 145.029 488.36 133.17V94.902C488.36 92.6099 489.207 90.6167 490.901 88.9226C492.595 87.2284 494.588 86.3813 496.88 86.3813H503.458C505.75 86.3813 507.743 87.2284 509.437 88.9226C511.131 90.6167 511.978 92.6099 511.978 94.902V131.526C511.978 137.306 512.726 141.292 514.221 143.484C515.815 145.577 518.506 146.624 522.293 146.624C525.781 146.624 528.97 145.228 531.86 142.438C534.75 139.548 536.195 136.459 536.195 133.17V94.902C536.195 92.6099 537.042 90.6167 538.736 88.9226C540.43 87.2284 542.423 86.3813 544.716 86.3813H551.891C554.183 86.3813 556.176 87.2284 557.87 88.9226C559.564 90.6167 560.411 92.6099 560.411 94.902V155.593C560.411 157.885 559.564 159.878 557.87 161.572C556.176 163.266 554.183 164.113 551.891 164.113H545.762C543.37 164.113 541.327 163.316 539.633 161.722C538.039 160.027 537.191 157.984 537.092 155.593V154.397C537.092 154.297 537.042 154.247 536.942 154.247L536.643 154.546C530.166 161.921 522.393 165.608 513.324 165.608Z" fill="#283618"/>
<path d="M449.503 107.309C447.111 103.622 443.424 101.778 438.441 101.778C433.458 101.778 429.721 103.622 427.23 107.309C424.838 110.997 423.642 116.976 423.642 125.248C423.642 133.519 424.838 139.498 427.23 143.186C429.721 146.873 433.458 148.717 438.441 148.717C443.424 148.717 447.111 146.873 449.503 143.186C451.995 139.498 453.24 133.519 453.24 125.248C453.24 116.976 451.995 110.997 449.503 107.309ZM467.292 154.995C460.416 162.071 450.799 165.608 438.441 165.608C426.084 165.608 416.467 162.071 409.591 154.995C402.715 147.919 399.276 138.004 399.276 125.248C399.276 112.492 402.715 102.576 409.591 95.5001C416.467 88.4245 426.084 84.8867 438.441 84.8867C450.799 84.8867 460.416 88.4245 467.292 95.5001C474.168 102.576 477.606 112.492 477.606 125.248C477.606 138.004 474.168 147.919 467.292 154.995Z" fill="#283618"/>
<path d="M343.316 164.113C341.024 164.113 339.031 163.266 337.337 161.572C335.743 159.878 334.945 157.885 334.945 155.593V94.902C334.945 92.6099 335.743 90.6167 337.337 88.9226C339.031 87.2284 341.024 86.3813 343.316 86.3813H350.641C352.933 86.3813 354.877 87.2284 356.471 88.9226C358.165 90.6167 359.012 92.6099 359.012 94.902V101.18C359.012 101.28 359.062 101.33 359.162 101.33C359.361 101.33 359.461 101.28 359.461 101.18C365.639 92.9088 374.26 88.0755 385.322 86.6803C387.614 86.3814 389.557 87.0789 391.151 88.7731C392.846 90.4673 393.693 92.5102 393.693 94.902V96.0978C393.693 98.3899 392.846 100.383 391.151 102.077C389.557 103.771 387.564 104.718 385.172 104.917C377.1 105.814 370.822 108.605 366.337 113.289C361.952 117.873 359.76 123.852 359.76 131.227V155.593C359.76 157.885 358.913 159.878 357.219 161.572C355.624 163.266 353.681 164.113 351.389 164.113H343.316Z" fill="#283618"/>
<path d="M269.002 115.98V134.516C269.002 137.804 270.497 140.844 273.486 143.634C276.576 146.325 280.064 147.67 283.95 147.67C288.535 147.67 292.172 145.827 294.863 142.139C297.553 138.352 298.899 132.722 298.899 125.248C298.899 110.299 293.916 102.825 283.95 102.825C280.064 102.825 276.576 104.22 273.486 107.01C270.497 109.701 269.002 112.691 269.002 115.98ZM253.904 197C251.612 197 249.619 196.153 247.925 194.459C246.23 192.765 245.383 190.772 245.383 188.48V94.9022C245.383 92.6101 246.23 90.617 247.925 88.9228C249.619 87.2286 251.612 86.3816 253.904 86.3816H259.883C262.275 86.3816 264.318 87.2286 266.012 88.9228C267.706 90.5173 268.603 92.5104 268.703 94.9022V96.0981C268.703 96.1977 268.753 96.2475 268.852 96.2475L269.151 95.9486C275.529 88.574 283.203 84.8867 292.172 84.8867C301.44 84.8867 308.815 88.3747 314.296 95.3506C319.876 102.327 322.667 112.292 322.667 125.248C322.667 137.804 319.777 147.67 313.997 154.845C308.316 162.021 301.041 165.608 292.172 165.608C283.9 165.608 276.526 162.569 270.048 156.49C269.949 156.39 269.849 156.34 269.749 156.34C269.65 156.34 269.6 156.39 269.6 156.49V188.48C269.6 190.772 268.753 192.765 267.059 194.459C265.364 196.153 263.371 197 261.079 197H253.904Z" fill="#283618"/>
<path d="M193.827 120.464C181.271 116.477 172.202 111.544 166.621 105.665C161.04 99.6854 158.25 92.4104 158.25 83.84C158.25 74.4723 161.489 67.0977 167.966 61.7163C174.544 56.2352 183.912 53.4946 196.07 53.4946C205.238 53.4946 213.559 54.541 221.034 56.6338C223.425 57.3314 225.319 58.7764 226.714 60.9688C228.209 63.0616 228.956 65.4036 228.956 67.9946V72.3297C228.956 74.3228 228.109 75.8675 226.415 76.9637C224.721 78.0599 222.927 78.2592 221.034 77.5616C212.563 74.5719 204.74 73.0771 197.564 73.0771C188.396 73.0771 183.812 76.6647 183.812 83.84C183.812 89.919 187.798 94.2541 195.771 96.8451C209.523 101.031 219.04 105.914 224.322 111.495C229.704 117.075 232.394 124.4 232.394 133.469C232.394 154.895 218.891 165.608 191.884 165.608C183.314 165.608 175.54 164.263 168.564 161.572C166.173 160.675 164.279 159.13 162.884 156.938C161.588 154.646 160.941 152.154 160.941 149.464V144.68C160.941 142.886 161.738 141.541 163.332 140.644C164.927 139.648 166.521 139.548 168.116 140.345C175.391 143.933 182.815 145.727 190.389 145.727C195.671 145.727 199.657 144.73 202.348 142.737C205.138 140.644 206.534 137.704 206.534 133.917C206.534 130.629 205.587 127.938 203.693 125.845C201.8 123.752 198.511 121.959 193.827 120.464Z" fill="#283618"/>
<path d="M58.5 52C64.6446 52 66.7743 70.2386 76.7679 80.2321C86.7614 90.2257 105 91.6911 105 98.5C105 105.309 86.7614 107.771 76.7679 117.764C66.7743 127.758 65.3089 145 58.5 145C51.6911 145 48.7311 127.758 38.7375 117.764C28.7439 107.771 12 104.977 12 98.5C12 92.0232 28.7439 90.2257 38.7375 80.2321C48.7311 70.2386 52.3554 52 58.5 52Z" fill="#96A956"/>
<path d="M0 169C0 163.477 4.47715 159 10 159H106.25C111.773 159 116.25 163.477 116.25 169V187.4C116.25 192.923 111.773 197.4 106.25 197.4H10C4.47715 197.4 0 192.923 0 187.4V169Z" fill="#BC6C26"/>
</svg>
