<?xml version="1.0" encoding="UTF-8"?>
<svg id="Layer_1" xmlns="http://www.w3.org/2000/svg" version="1.1" viewBox="0 0 822 250">
  <!-- Generator: Adobe Illustrator 29.4.0, SVG Export Plug-In . SVG Version: 2.1.0 Build 152)  -->
  <defs>
    <style>
      .st0 {
        fill: #96a956;
      }

      .st1 {
        fill: #fff;
      }

      .st2 {
        fill: #bc6c26;
      }
    </style>
  </defs>
  <path class="st1" d="M775.09,102.82c-9.97,0-14.95,7.47-14.95,22.42,0,7.57,1.34,13.2,4.04,16.89,2.69,3.69,6.33,5.53,10.91,5.53,3.99,0,7.47-1.35,10.46-4.04,2.99-2.69,4.48-5.73,4.48-9.12v-18.54c0-3.39-1.49-6.43-4.48-9.12-2.99-2.69-6.48-4.04-10.46-4.04ZM766.87,165.61c-8.87,0-16.14-3.54-21.83-10.61-5.68-7.17-8.52-17.09-8.52-29.75s2.74-22.92,8.22-29.9c5.48-6.98,12.86-10.46,22.12-10.46,8.17,0,15.6,3.04,22.27,9.12.1.1.2.15.3.15s.15-.05.15-.15v-33.48c0-2.29.8-4.29,2.39-5.98,1.69-1.69,3.69-2.54,5.98-2.54h7.32c2.29,0,4.24.85,5.83,2.54,1.69,1.69,2.54,3.69,2.54,5.98v95.07c0,2.29-.85,4.29-2.54,5.98-1.59,1.69-3.54,2.54-5.83,2.54h-5.68c-2.39,0-4.43-.8-6.13-2.39-1.59-1.7-2.44-3.74-2.54-6.13v-1.2c0-.1-.05-.15-.15-.15l-.3.3c-6.28,7.38-14.15,11.06-23.62,11.06Z"/>
  <path class="st1" d="M664.38,164.11c-2.29,0-4.29-.85-5.98-2.54-1.59-1.69-2.39-3.69-2.39-5.98V63.51c0-2.29.8-4.29,2.39-5.98,1.69-1.69,3.69-2.54,5.98-2.54h52.92c2.29,0,4.23.85,5.83,2.54,1.69,1.69,2.54,3.69,2.54,5.98v3.44c0,2.29-.85,4.29-2.54,5.98-1.59,1.69-3.54,2.54-5.83,2.54h-34.68c-.8,0-1.2.4-1.2,1.2v19.73c0,.9.4,1.35,1.2,1.35h31.69c2.29,0,4.24.85,5.83,2.54,1.69,1.69,2.54,3.69,2.54,5.98v2.24c0,2.29-.85,4.29-2.54,5.98-1.59,1.69-3.54,2.54-5.83,2.54h-31.69c-.8,0-1.2.4-1.2,1.2v24.22c0,.8.4,1.2,1.2,1.2h34.68c2.29,0,4.23.85,5.83,2.54,1.69,1.69,2.54,3.69,2.54,5.98v3.44c0,2.29-.85,4.29-2.54,5.98-1.59,1.69-3.54,2.54-5.83,2.54h-52.92Z"/>
  <path class="st1" d="M581.99,106.26c-2.29,0-4.28-.8-5.98-2.39-1.69-1.69-2.54-3.69-2.54-5.98s.85-4.29,2.54-5.98c1.69-1.69,3.69-2.54,5.98-2.54h5.98c.8,0,1.2-.45,1.2-1.35v-18.54c0-2.29.85-4.29,2.54-5.98,1.69-1.69,3.69-2.54,5.98-2.54h7.17c2.29,0,4.29.85,5.98,2.54,1.69,1.69,2.54,3.69,2.54,5.98v18.54c0,.9.45,1.35,1.34,1.35h14.65c2.29,0,4.23.85,5.83,2.54,1.69,1.69,2.54,3.69,2.54,5.98s-.85,4.29-2.54,5.98c-1.6,1.6-3.54,2.39-5.83,2.39h-14.65c-.9,0-1.34.45-1.34,1.35v25.56c0,6.28.55,10.26,1.64,11.96,1.2,1.69,3.79,2.54,7.77,2.54,2.09,0,3.74-.1,4.93-.3,2.19-.3,4.13.2,5.83,1.49,1.7,1.3,2.54,2.99,2.54,5.08v1.2c0,2.49-.8,4.68-2.39,6.58-1.6,1.89-3.64,2.99-6.13,3.29-3.09.4-6.68.6-10.76.6-10.16,0-17.34-2.14-21.53-6.43-4.09-4.38-6.13-12.21-6.13-23.47v-28.1c0-.9-.4-1.35-1.2-1.35h-5.98Z"/>
  <path class="st1" d="M513.32,165.61c-8.77,0-15.15-2.44-19.13-7.32-3.89-4.88-5.83-13.25-5.83-25.11v-38.27c0-2.29.85-4.29,2.54-5.98,1.69-1.69,3.69-2.54,5.98-2.54h6.58c2.29,0,4.29.85,5.98,2.54,1.69,1.69,2.54,3.69,2.54,5.98v36.62c0,5.78.75,9.77,2.24,11.96,1.59,2.09,4.28,3.14,8.07,3.14,3.49,0,6.68-1.4,9.57-4.19,2.89-2.89,4.34-5.98,4.34-9.27v-38.27c0-2.29.85-4.29,2.54-5.98,1.69-1.69,3.69-2.54,5.98-2.54h7.17c2.29,0,4.29.85,5.98,2.54,1.69,1.69,2.54,3.69,2.54,5.98v60.69c0,2.29-.85,4.29-2.54,5.98-1.69,1.69-3.69,2.54-5.98,2.54h-6.13c-2.39,0-4.43-.8-6.13-2.39-1.59-1.7-2.44-3.74-2.54-6.13v-1.2c0-.1-.05-.15-.15-.15l-.3.3c-6.48,7.38-14.25,11.06-23.32,11.06Z"/>
  <path class="st1" d="M449.5,107.31c-2.39-3.69-6.08-5.53-11.06-5.53s-8.72,1.84-11.21,5.53c-2.39,3.69-3.59,9.67-3.59,17.94s1.2,14.25,3.59,17.94c2.49,3.69,6.23,5.53,11.21,5.53s8.67-1.84,11.06-5.53c2.49-3.69,3.74-9.67,3.74-17.94s-1.24-14.25-3.74-17.94ZM467.29,154.99c-6.88,7.08-16.49,10.61-28.85,10.61s-21.97-3.54-28.85-10.61c-6.88-7.08-10.32-16.99-10.32-29.75s3.44-22.67,10.32-29.75c6.88-7.08,16.49-10.61,28.85-10.61s21.97,3.54,28.85,10.61c6.88,7.08,10.31,16.99,10.31,29.75s-3.44,22.67-10.31,29.75Z"/>
  <path class="st1" d="M343.32,164.11c-2.29,0-4.29-.85-5.98-2.54-1.59-1.69-2.39-3.69-2.39-5.98v-60.69c0-2.29.8-4.29,2.39-5.98,1.69-1.69,3.69-2.54,5.98-2.54h7.32c2.29,0,4.24.85,5.83,2.54,1.69,1.69,2.54,3.69,2.54,5.98v6.28c0,.1.05.15.15.15.2,0,.3-.05.3-.15,6.18-8.27,14.8-13.1,25.86-14.5,2.29-.3,4.24.4,5.83,2.09,1.7,1.69,2.54,3.74,2.54,6.13v1.2c0,2.29-.85,4.29-2.54,5.98-1.59,1.69-3.59,2.64-5.98,2.84-8.07.9-14.35,3.69-18.83,8.37-4.39,4.58-6.58,10.56-6.58,17.94v24.37c0,2.29-.85,4.29-2.54,5.98-1.6,1.69-3.54,2.54-5.83,2.54h-8.07Z"/>
  <path class="st1" d="M269,115.98v18.54c0,3.29,1.49,6.33,4.48,9.12,3.09,2.69,6.58,4.04,10.46,4.04,4.58,0,8.22-1.84,10.91-5.53,2.69-3.79,4.04-9.42,4.04-16.89,0-14.95-4.98-22.42-14.95-22.42-3.89,0-7.37,1.4-10.46,4.19-2.99,2.69-4.48,5.68-4.48,8.97ZM253.9,197c-2.29,0-4.29-.85-5.98-2.54-1.7-1.69-2.54-3.69-2.54-5.98v-93.58c0-2.29.85-4.29,2.54-5.98,1.69-1.69,3.69-2.54,5.98-2.54h5.98c2.39,0,4.43.85,6.13,2.54,1.69,1.59,2.59,3.59,2.69,5.98v1.2c0,.1.05.15.15.15l.3-.3c6.38-7.37,14.05-11.06,23.02-11.06s16.64,3.49,22.12,10.46c5.58,6.98,8.37,16.94,8.37,29.9s-2.89,22.42-8.67,29.6c-5.68,7.18-12.96,10.76-21.83,10.76-8.27,0-15.65-3.04-22.12-9.12-.1-.1-.2-.15-.3-.15s-.15.05-.15.15v31.99c0,2.29-.85,4.29-2.54,5.98-1.69,1.69-3.69,2.54-5.98,2.54h-7.18Z"/>
  <path class="st1" d="M193.83,120.46c-12.56-3.99-21.62-8.92-27.21-14.8-5.58-5.98-8.37-13.25-8.37-21.83,0-9.37,3.24-16.74,9.72-22.12,6.58-5.48,15.95-8.22,28.1-8.22,9.17,0,17.49,1.05,24.96,3.14,2.39.7,4.29,2.14,5.68,4.33,1.49,2.09,2.24,4.43,2.24,7.03v4.34c0,1.99-.85,3.54-2.54,4.63s-3.49,1.3-5.38.6c-8.47-2.99-16.29-4.48-23.47-4.48-9.17,0-13.75,3.59-13.75,10.76,0,6.08,3.99,10.41,11.96,13.01,13.75,4.19,23.27,9.07,28.55,14.65,5.38,5.58,8.07,12.9,8.07,21.97,0,21.43-13.5,32.14-40.51,32.14-8.57,0-16.34-1.35-23.32-4.04-2.39-.9-4.28-2.44-5.68-4.63-1.3-2.29-1.94-4.78-1.94-7.47v-4.78c0-1.79.8-3.14,2.39-4.04,1.6-1,3.19-1.1,4.78-.3,7.28,3.59,14.7,5.38,22.27,5.38,5.28,0,9.27-1,11.96-2.99,2.79-2.09,4.19-5.03,4.19-8.82,0-3.29-.95-5.98-2.84-8.07-1.89-2.09-5.18-3.89-9.87-5.38Z"/>
  <path class="st0" d="M58.5,52c6.14,0,8.27,18.24,18.27,28.23,9.99,9.99,28.23,11.46,28.23,18.27s-18.24,9.27-28.23,19.26c-9.99,9.99-11.46,27.24-18.27,27.24s-9.77-17.24-19.76-27.24c-9.99-9.99-26.74-12.79-26.74-19.26s16.74-8.27,26.74-18.27c9.99-9.99,13.62-28.23,19.76-28.23Z"/>
  <path class="st2" d="M0,169c0-5.52,4.48-10,10-10h96.25c5.52,0,10,4.48,10,10v18.4c0,5.52-4.48,10-10,10H10c-5.52,0-10-4.48-10-10v-18.4Z"/>
</svg>